# xmcd
#
# Track frame offsets:
#	150
#	15596
#	31948
#	52869
#	79594
#	97772
#	107286
#	117613
#	129027
#	146051
#
# Disc length: 2094 seconds
# Revision: 0
# Processed by: cddbd v1.5.2PL0 Copyright (c) Steve Scherf et al.
# Submitted via: dBpowerAMP V12.0
#
DISCID=6b082c0a
DTITLE=The Deadly Gentlemen - The Bastard Masterpiece
DYEAR=2008
DGENRE=Bluegrass
TTITLE0=The Splendor of the Bender
TTITLE1=Hello, Apocalypse
TTITLE2=Working
TTITLE3=When I Was a Cowboy
TTITLE4=Roll Me, Tumble Me
TTITLE5=Locked Up
TTITLE6=Hobo Rockstar
TTITLE7=I'm Coming Back
TTITLE8=The Demon Ether
TTITLE9=The Better the Bitchin'
EXTD=
EXTT0=
EXTT1=
EXTT2=
EXTT3=
EXTT4=
EXTT5=
EXTT6=
EXTT7=
EXTT8=
EXTT9=
PLAYORDER=
